<svg width="1280" height="720" xmlns="http://www.w3.org/2000/svg" xmlns:xlink="http://www.w3.org/1999/xlink" overflow="hidden"><defs><clipPath id="clip0"><rect x="0" y="0" width="720" height="720"/></clipPath><clipPath id="clip1"><path d="M325.136 329.608 603.205 0 916.571 264.366 638.501 593.975Z" fill-rule="evenodd" clip-rule="evenodd"/></clipPath><clipPath id="clip2"><path d="M325.136 329.609 603.205-6.10352e-05 916.571 264.366 638.501 593.974Z" fill-rule="evenodd" clip-rule="evenodd"/></clipPath><clipPath id="clip3"><path d="M-421.968 997.938 617.855-234.612 1850.41 805.217 810.589 2037.77Z" fill-rule="evenodd" clip-rule="evenodd"/></clipPath><clipPath id="clip4"><path d="M795.326 322.054 678.982 459.85 664.56 442.746 637.944 411.199 629.524 401.247 562.365 321.614 535.07 289.272C532.72 286.467 533.087 282.293 535.891 279.932 538.669 277.603 542.87 277.95 545.201 280.751L570.923 311.407 637.945 391.241 704.909 311.39 678.961 280.49 663.837 262.467 688.805 232.696C713.458 203.323 757.375 199.496 786.745 224.115 816.115 248.745 819.945 292.685 795.326 322.054ZM658.37 207.177 637.913 231.588 617.431 207.188C578.7 161.042 509.653 155.019 463.539 193.724 417.395 232.467 411.371 301.502 450.078 347.627L570.825 490.771 589.201 512.54 589.221 512.567 611.847 539.378 637.966 570.326 664.052 539.367 637.958 508.44 623.778 491.687 596.887 459.866 480.51 322.096C455.881 292.732 459.724 248.788 489.066 224.162 518.423 199.529 562.37 203.343 587.004 232.713L611.981 262.476 637.93 293.376 653.042 311.4 637.932 329.423 622.785 311.403 596.859 280.501 575.634 255.231C559.193 235.643 529.927 233.096 510.343 249.508 490.784 265.94 488.233 295.235 504.643 314.797L611.308 442.759 637.952 474.699 652.106 491.682 678.177 522.612 686.694 512.528 686.715 512.504 705.057 490.75 825.762 347.573C864.459 301.44 858.415 232.404 812.263 193.679 766.13 154.982 697.094 161.025 658.37 207.177Z"/></clipPath><linearGradient x1="1210.44" y1="1455.94" x2="1210.44" y2="1078.16" gradientUnits="userSpaceOnUse" spreadMethod="pad" id="fill5"><stop offset="0" stop-color="#C50B8C"/><stop offset="1" stop-color="#24265D"/></linearGradient></defs><g clip-path="url(#clip0)"><rect x="0" y="0" width="1280" height="720" fill="none"/><g clip-path="url(#clip1)"><g clip-path="url(#clip2)"><g clip-path="url(#clip3)"><path d="M1612.58 0 0 0 0 1612.58 1612.58 1612.58 1612.58 0" fill="none" transform="matrix(0.64482 -0.764335 -0.764339 -0.644824 810.589 2037.77)"/><path d="M155.731 1023.12C157.488 1021.17 159.646 1019.63 162.146 1018.58 164.624 1017.53 167.42 1017 170.455 1017 172.816 1017 175.041 1017.32 177.068 1017.96 179.131 1018.62 180.968 1019.59 182.529 1020.85 184.107 1022.12 185.4 1023.7 186.371 1025.53 187.341 1027.36 187.94 1029.46 188.155 1031.78L188.335 1033.72 179.404 1033.72 179.269 1032.09C179.172 1030.93 178.899 1029.91 178.455 1029.04 178.019 1028.2 177.431 1027.47 176.708 1026.88 175.972 1026.29 175.072 1025.83 174.034 1025.51 172.933 1025.19 171.69 1025.02 170.339 1025.02 168.643 1025.02 167.109 1025.33 165.776 1025.93 164.461 1026.52 163.315 1027.4 162.37 1028.53 161.403 1029.69 160.645 1031.16 160.118 1032.89 159.57 1034.69 159.293 1036.81 159.293 1039.18 159.293 1041.55 159.574 1043.65 160.129 1045.44 160.668 1047.18 161.43 1048.64 162.399 1049.8 163.336 1050.93 164.489 1051.79 165.821 1052.36 167.191 1052.95 168.76 1053.25 170.484 1053.25 171.738 1053.25 172.92 1053.09 173.997 1052.76 175.041 1052.44 175.961 1051.99 176.729 1051.41 177.468 1050.85 178.071 1050.17 178.519 1049.38 178.954 1048.61 179.206 1047.73 179.266 1046.77L179.37 1045.1 188.352 1045.1 188.153 1047.06C187.935 1049.22 187.305 1051.22 186.282 1052.99 185.268 1054.74 183.944 1056.26 182.343 1057.5 180.764 1058.73 178.929 1059.68 176.891 1060.34 174.871 1061 172.706 1061.33 170.455 1061.33 167.436 1061.33 164.655 1060.8 162.188 1059.75 159.699 1058.7 157.543 1057.17 155.778 1055.21 154.025 1053.26 152.661 1050.9 151.725 1048.18 150.803 1045.49 150.335 1042.46 150.335 1039.18 150.335 1035.88 150.796 1032.84 151.708 1030.16 152.635 1027.44 153.988 1025.07 155.731 1023.12" fill="#231F20" transform="matrix(0.64482 -0.764335 -0.764339 -0.644824 810.589 2037.77)"/><path d="M237.089 1033.03C236.493 1034.81 236.191 1036.88 236.191 1039.18 236.191 1041.45 236.496 1043.5 237.099 1045.27 237.688 1046.99 238.513 1048.46 239.553 1049.64 240.576 1050.79 241.809 1051.68 243.217 1052.29 244.643 1052.91 246.231 1053.22 247.935 1053.22 249.599 1053.22 251.151 1052.91 252.548 1052.3 253.929 1051.71 255.142 1050.82 256.155 1049.68 257.185 1048.51 258.005 1047.04 258.596 1045.31 259.198 1043.53 259.504 1041.48 259.504 1039.18 259.504 1036.89 259.198 1034.82 258.595 1033.03 258.003 1031.28 257.18 1029.8 256.148 1028.62 255.136 1027.45 253.914 1026.56 252.518 1025.95 251.103 1025.33 249.522 1025.02 247.818 1025.02 246.115 1025.02 244.54 1025.33 243.137 1025.95 241.749 1026.56 240.531 1027.45 239.519 1028.62 238.487 1029.8 237.669 1031.28 237.089 1033.03ZM262.684 1023.25C264.492 1025.2 265.919 1027.57 266.926 1030.28 267.926 1032.96 268.433 1035.96 268.433 1039.18 268.433 1042.42 267.92 1045.43 266.909 1048.12 265.891 1050.83 264.451 1053.18 262.631 1055.12 260.802 1057.07 258.6 1058.59 256.087 1059.67 253.58 1060.74 250.807 1061.28 247.848 1061.28 244.909 1061.28 242.144 1060.74 239.629 1059.68 237.104 1058.63 234.891 1057.1 233.053 1055.15 231.22 1053.22 229.776 1050.86 228.756 1048.15 227.745 1045.46 227.232 1042.44 227.232 1039.18 227.232 1035.94 227.74 1032.93 228.739 1030.24 229.747 1027.51 231.182 1025.15 233.001 1023.2 234.83 1021.24 237.036 1019.71 239.559 1018.62 242.077 1017.55 244.865 1017 247.848 1017 250.831 1017 253.621 1017.55 256.14 1018.64 258.665 1019.73 260.866 1021.28 262.684 1023.25" fill="#231F20" transform="matrix(0.64482 -0.764335 -0.764339 -0.644824 810.589 2037.77)"/><path d="M341.111 1017.69 349.634 1017.69 349.634 1060.58 338.721 1060.58 329.289 1031.74 319.961 1060.58 309.043 1060.58 309.043 1017.69 317.537 1017.69 317.537 1042.01 325.677 1017.69 332.911 1017.69 341.111 1042.06 341.111 1017.69" fill="#231F20" transform="matrix(0.64482 -0.764335 -0.764339 -0.644824 810.589 2037.77)"/><path d="M416.025 1049.87C416.377 1049.24 416.556 1048.35 416.556 1047.2 416.556 1046.22 416.422 1045.36 416.159 1044.65 415.928 1044.03 415.567 1043.52 415.059 1043.1 414.517 1042.65 413.778 1042.3 412.862 1042.06 411.842 1041.79 410.562 1041.65 409.056 1041.65L400.831 1041.65 400.831 1052.34 408.882 1052.34C410.066 1052.34 411.198 1052.26 412.248 1052.1 413.164 1051.97 413.965 1051.7 414.629 1051.31 415.219 1050.97 415.675 1050.5 416.025 1049.87ZM425.484 1047.32C425.484 1049.9 424.987 1052.1 424.007 1053.84 423.028 1055.59 421.697 1056.99 420.049 1058 418.472 1058.97 416.644 1059.67 414.615 1060.04 412.696 1060.4 410.669 1060.58 408.591 1060.58L392.076 1060.58 392.076 1017.69 400.831 1017.69 400.831 1033.42 408.94 1033.42C414.164 1033.42 418.246 1034.59 421.068 1036.9 423.999 1039.3 425.484 1042.81 425.484 1047.32" fill="#231F20" transform="matrix(0.64482 -0.764335 -0.764339 -0.644824 810.589 2037.77)"/><path d="M477.118 1037.38 481.23 1048.72 485.557 1037.38ZM492.989 1017.69 502.754 1017.69 485.258 1060.58 477.204 1060.58 460.753 1017.69 470.076 1017.69 474.407 1029.64 488.424 1029.64 492.989 1017.69" fill="#231F20" transform="matrix(0.64482 -0.764335 -0.764339 -0.644824 810.589 2037.77)"/><path d="M574.367 1017.69 574.367 1060.58 565.816 1060.58 565.816 1033.63 547.991 1060.58 539.882 1060.58 539.882 1017.69 548.376 1017.69 548.376 1044.61 566.291 1017.69 574.367 1017.69" fill="#231F20" transform="matrix(0.64482 -0.764335 -0.764339 -0.644824 810.589 2037.77)"/><path d="M628.119 1017.69 636.902 1017.69 636.902 1035.61 653.956 1060.58 643.263 1060.58 632.509 1044.01 621.729 1060.58 611.033 1060.58 628.119 1035.61 628.119 1017.69" fill="#231F20" transform="matrix(0.64482 -0.764335 -0.764339 -0.644824 810.589 2037.77)"/><path d="M596.954 988.495 652.382 988.495 652.382 992.47 596.954 992.47 596.954 988.495" fill="#231F20" transform="matrix(0.64482 -0.764335 -0.764339 -0.644824 810.589 2037.77)"/><path d="M150.323 988.495 205.751 988.495 205.751 992.47 150.323 992.47 150.323 988.495" fill="#231F20" transform="matrix(0.64482 -0.764335 -0.764339 -0.644824 810.589 2037.77)"/><path d="M230.742 991.55 222.956 1003.52 218.735 1003.52 229.007 988.511 229.007 977.448 232.477 977.448 232.477 988.511 242.729 1003.52 238.509 1003.52 230.742 991.55" fill="#231F20" transform="matrix(0.64482 -0.764335 -0.764339 -0.644824 810.589 2037.77)"/><path d="M277.68 986.06C277.237 984.753 276.62 983.641 275.83 982.738 275.04 981.827 274.098 981.141 273.007 980.666 271.914 980.19 270.72 979.948 269.422 979.948 268.124 979.948 266.933 980.19 265.847 980.666 264.761 981.141 263.824 981.827 263.033 982.738 262.243 983.641 261.629 984.753 261.193 986.06 260.756 987.374 260.537 988.857 260.537 990.51 260.537 992.155 260.759 993.631 261.202 994.929 261.646 996.227 262.265 997.323 263.062 998.218 263.858 999.121 264.806 999.807 265.905 1000.28 267.003 1000.76 268.202 1001 269.499 1001 270.771 1001 271.946 1000.76 273.026 1000.29 274.105 999.823 275.04 999.146 275.83 998.251 276.62 997.356 277.237 996.259 277.68 994.953 278.123 993.647 278.346 992.171 278.346 990.51 278.346 988.857 278.123 987.374 277.68 986.06ZM278.384 1000.27C277.279 1001.45 275.965 1002.36 274.442 1003.01 272.919 1003.66 271.253 1003.98 269.441 1003.98 267.642 1003.98 265.979 1003.66 264.449 1003.02 262.92 1002.38 261.6 1001.47 260.489 1000.29 259.378 999.121 258.51 997.702 257.888 996.042 257.264 994.389 256.953 992.542 256.953 990.51 256.953 988.495 257.26 986.656 257.878 984.987 258.495 983.326 259.355 981.907 260.46 980.722 261.565 979.537 262.882 978.617 264.411 977.964 265.94 977.311 267.616 976.981 269.441 976.981 271.266 976.981 272.943 977.311 274.471 977.972 276 978.634 277.314 979.561 278.413 980.754 279.511 981.939 280.369 983.358 280.985 985.019 281.602 986.68 281.911 988.511 281.911 990.51 281.911 992.526 281.599 994.364 280.976 996.025 280.352 997.678 279.489 999.097 278.384 1000.27" fill="#231F20" transform="matrix(0.64482 -0.764335 -0.764339 -0.644824 810.589 2037.77)"/><path d="M315.869 988.511C315.869 986.769 315.72 985.358 315.425 984.27 315.13 983.173 314.7 982.318 314.134 981.698 313.568 981.069 312.862 980.649 312.015 980.424 311.166 980.198 310.196 980.085 309.104 980.085 308.012 980.085 307.045 980.198 306.204 980.416 305.362 980.633 304.652 981.053 304.074 981.665 303.495 982.286 303.055 983.141 302.754 984.237 302.451 985.334 302.301 986.761 302.301 988.511L302.301 1003.52 298.85 1003.52 298.85 988.446C298.85 987.575 298.88 986.689 298.938 985.777 298.995 984.874 299.137 983.995 299.362 983.149 299.586 982.302 299.918 981.504 300.355 980.762 300.791 980.012 301.389 979.359 302.146 978.803 302.905 978.247 303.849 977.803 304.98 977.473 306.11 977.15 307.485 976.981 309.104 976.981 311.134 976.981 312.81 977.247 314.134 977.763 315.457 978.287 316.505 979.037 317.276 980.021 318.046 981.004 318.586 982.206 318.895 983.625 319.203 985.044 319.357 986.648 319.357 988.446L319.357 1003.52 315.869 1003.52 315.869 988.511" fill="#231F20" transform="matrix(0.64482 -0.764335 -0.764339 -0.644824 810.589 2037.77)"/><path d="M351.446 991.945C350.675 991.784 349.756 991.704 348.69 991.704L340.943 991.704 340.943 1000.63 349.191 1000.63C351.066 1000.63 352.467 1000.27 353.393 999.565 354.317 998.847 354.78 997.743 354.78 996.235 354.78 995.396 354.664 994.695 354.433 994.114 354.202 993.542 353.839 993.074 353.344 992.72 352.849 992.365 352.217 992.107 351.446 991.945ZM352.486 989.261 352.486 989.317C353.385 989.494 354.199 989.793 354.925 990.196 355.65 990.599 356.267 991.099 356.774 991.688 357.282 992.276 357.672 992.953 357.941 993.719 358.211 994.485 358.346 995.324 358.346 996.235 358.346 997.275 358.14 998.299 357.729 999.291 357.318 1000.28 356.72 1001.13 355.936 1001.82 355.474 1002.21 354.988 1002.52 354.482 1002.74 353.974 1002.97 353.435 1003.14 352.863 1003.25 352.29 1003.37 351.687 1003.44 351.051 1003.48 350.415 1003.51 349.743 1003.52 349.037 1003.52L337.493 1003.52 337.493 977.448 340.943 977.448 340.943 988.583 347.341 988.583C348.008 988.583 348.641 988.478 349.239 988.277 349.837 988.075 350.383 987.785 350.878 987.422 351.372 987.051 351.803 986.616 352.169 986.108 352.535 985.6 352.827 985.044 353.045 984.439L355.493 977.448 359.252 977.448 356.669 984.536C355.705 987.108 354.311 988.68 352.486 989.261" fill="#231F20" transform="matrix(0.64482 -0.764335 -0.764339 -0.644824 810.589 2037.77)"/><path d="M393.971 989.333C393.451 989.873 392.844 990.333 392.149 990.712 391.456 991.091 390.72 991.421 389.942 991.688 389.165 991.962 388.365 992.187 387.543 992.373 386.721 992.558 385.918 992.736 385.135 992.905 383.99 993.147 383.034 993.389 382.263 993.623 381.492 993.865 380.875 994.131 380.413 994.421 379.949 994.719 379.622 995.066 379.429 995.453 379.237 995.848 379.141 996.324 379.141 996.872 379.141 998.089 379.664 999.065 380.711 999.783 381.759 1000.5 383.252 1000.86 385.192 1000.86 389.162 1000.86 391.32 999.291 391.668 996.138L395.021 996.138C394.983 997.364 394.712 998.452 394.212 999.428 393.711 1000.4 393.022 1001.22 392.149 1001.9 391.275 1002.56 390.238 1003.08 389.037 1003.44 387.836 1003.81 386.502 1003.98 385.038 1003.98 383.65 1003.98 382.388 1003.81 381.251 1003.44 380.114 1003.08 379.137 1002.58 378.321 1001.94 377.505 1001.3 376.873 1000.53 376.423 999.646 375.973 998.759 375.748 997.791 375.748 996.735 375.748 995.775 375.913 994.921 376.24 994.171 376.568 993.429 377.072 992.768 377.753 992.195 378.434 991.623 379.304 991.131 380.365 990.704 381.425 990.276 382.687 989.906 384.151 989.567 385.655 989.261 386.927 988.954 387.968 988.664 389.008 988.366 389.847 988.035 390.483 987.656 391.118 987.285 391.578 986.85 391.861 986.358 392.143 985.866 392.284 985.261 392.284 984.536 392.284 983.842 392.13 983.221 391.822 982.681 391.513 982.133 391.076 981.665 390.511 981.278 389.946 980.891 389.265 980.601 388.469 980.391 387.672 980.19 386.785 980.085 385.809 980.085 384.806 980.085 383.865 980.198 382.985 980.424 382.105 980.649 381.325 980.996 380.644 981.472 379.962 981.947 379.404 982.552 378.967 983.278 378.53 984.004 378.267 984.858 378.177 985.85L374.862 985.85C374.901 984.552 375.158 983.358 375.633 982.27 376.108 981.19 376.805 980.254 377.724 979.472 378.642 978.682 379.789 978.077 381.164 977.642 382.538 977.198 384.145 976.981 385.982 976.981 387.382 976.981 388.674 977.174 389.856 977.569 391.037 977.964 392.06 978.505 392.92 979.198 393.781 979.891 394.453 980.722 394.934 981.673 395.416 982.633 395.657 983.681 395.657 984.826 395.657 985.818 395.506 986.68 395.203 987.422 394.902 988.156 394.492 988.801 393.971 989.333" fill="#231F20" transform="matrix(0.64482 -0.764335 -0.764339 -0.644824 810.589 2037.77)"/><path d="M416.24 1003.52 412.79 1003.52 412.79 977.448 428.94 977.448 428.94 980.545 416.24 980.545 416.24 1003.52" fill="#231F20" transform="matrix(0.64482 -0.764335 -0.764339 -0.644824 810.589 2037.77)"/><path d="M464.932 986.06C464.489 984.753 463.872 983.641 463.083 982.738 462.292 981.827 461.35 981.141 460.259 980.666 459.166 980.19 457.972 979.948 456.674 979.948 455.376 979.948 454.184 980.19 453.099 980.666 452.013 981.141 451.075 981.827 450.285 982.738 449.495 983.641 448.881 984.753 448.445 986.06 448.008 987.374 447.789 988.857 447.789 990.51 447.789 992.155 448.011 993.631 448.454 994.929 448.898 996.227 449.518 997.323 450.314 998.218 451.11 999.121 452.058 999.807 453.156 1000.28 454.255 1000.76 455.453 1001 456.751 1001 458.023 1001 459.199 1000.76 460.277 1000.29 461.357 999.823 462.292 999.146 463.083 998.251 463.872 997.356 464.489 996.259 464.932 994.953 465.376 993.647 465.597 992.171 465.597 990.51 465.597 988.857 465.376 987.374 464.932 986.06ZM465.636 1000.27C464.531 1001.45 463.217 1002.36 461.694 1003.01 460.173 1003.66 458.504 1003.98 456.694 1003.98 454.895 1003.98 453.231 1003.66 451.702 1003.02 450.172 1002.38 448.852 1001.47 447.741 1000.29 446.63 999.121 445.762 997.702 445.139 996.042 444.516 994.389 444.205 992.542 444.205 990.51 444.205 988.495 444.513 986.656 445.13 984.987 445.747 983.326 446.607 981.907 447.712 980.722 448.818 979.537 450.134 978.617 451.663 977.964 453.192 977.311 454.868 976.981 456.694 976.981 458.517 976.981 460.194 977.311 461.723 977.972 463.253 978.634 464.566 979.561 465.664 980.754 466.763 981.939 467.621 983.358 468.237 985.019 468.854 986.68 469.163 988.511 469.163 990.51 469.163 992.526 468.851 994.364 468.228 996.025 467.604 997.678 466.741 999.097 465.636 1000.27" fill="#231F20" transform="matrix(0.64482 -0.764335 -0.764339 -0.644824 810.589 2037.77)"/><path d="M498.996 987.64 505.876 987.64 505.876 983.649C504.952 982.415 503.799 981.488 502.417 980.875 501.036 980.262 499.388 979.948 497.474 979.948 496.137 979.948 494.921 980.19 493.822 980.666 492.723 981.141 491.779 981.827 490.988 982.738 490.199 983.641 489.585 984.753 489.148 986.06 488.711 987.374 488.494 988.857 488.494 990.51 488.494 992.179 488.711 993.671 489.148 994.977 489.585 996.275 490.196 997.372 490.979 998.267 491.762 999.162 492.704 999.839 493.802 1000.3 494.901 1000.77 496.119 1001 497.455 1001 498.572 1001 499.591 1000.87 500.51 1000.63 501.428 1000.39 502.221 1000.03 502.89 999.573 503.558 999.105 504.087 998.541 504.48 997.872 504.871 997.202 505.099 996.445 505.164 995.598L508.748 995.598C508.633 996.872 508.267 998.025 507.649 999.057 507.033 1000.1 506.224 1000.98 505.222 1001.7 504.219 1002.43 503.054 1002.99 501.724 1003.39 500.394 1003.78 498.951 1003.98 497.397 1003.98 495.547 1003.98 493.857 1003.67 492.328 1003.03 490.799 1002.4 489.485 1001.49 488.387 1000.32 487.288 999.154 486.434 997.743 485.824 996.082 485.213 994.421 484.908 992.566 484.908 990.51 484.908 988.478 485.21 986.632 485.813 984.971 486.417 983.31 487.272 981.883 488.378 980.706 489.482 979.521 490.809 978.601 492.357 977.956 493.905 977.311 495.624 976.981 497.513 976.981 501.29 976.981 504.078 978.053 505.876 980.182L506.763 977.448 509.25 977.448 509.25 990.76 498.996 990.76 498.996 987.64" fill="#231F20" transform="matrix(0.64482 -0.764335 -0.764339 -0.644824 810.589 2037.77)"/><path d="M531.336 988.14 535.711 1000.21 540.317 988.14ZM533.88 1003.52 523.877 977.448 527.52 977.448 530.391 985.366 541.319 985.366 544.344 977.448 548.257 977.448 537.618 1003.52 533.88 1003.52" fill="#231F20" transform="matrix(0.64482 -0.764335 -0.764339 -0.644824 810.589 2037.77)"/><path d="M580.654 982.915 567.029 1003.52 563.463 1003.52 563.463 977.448 566.739 977.448 566.739 998.009 580.423 977.448 583.97 977.448 583.97 1003.52 580.654 1003.52 580.654 982.915" fill="#231F20" transform="matrix(0.64482 -0.764335 -0.764339 -0.644824 810.589 2037.77)"/><path d="M477.247 1316.99 468.116 1317.02 468.959 1326.12C475 1390.81 427.271 1448.35 362.568 1454.38 323.641 1458.02 287.301 1442.19 263.203 1414.9 247.267 1396.85 236.704 1373.75 234.297 1347.99L218.679 1180.47 214.277 1133.23 209.509 1082.02 260.939 1081.89 265.729 1133.1 270.131 1180.34 274.899 1231.56 285.318 1343.23C288.72 1379.8 321.249 1406.78 357.809 1403.37 394.384 1399.97 421.364 1367.43 417.949 1330.88L416.677 1317.15 411.897 1265.93 408.652 1231.21 403.874 1180 403.258 1173.4C401.866 1158.49 413.497 1145.58 428.466 1145.41L428.466 1145.41C441.808 1145.25 453.034 1155.36 454.27 1168.64L455.314 1179.86 460.104 1231.07 463.337 1265.81 477.114 1265.77C513.834 1265.67 543.641 1235.71 543.537 1198.98 543.447 1162.27 513.485 1132.46 476.755 1132.56L364.603 1132.84 369.006 1180.09 373.784 1231.29 377.018 1266.02 381.796 1317.25 382.138 1320.92C383.42 1334.65 373.967 1347.45 360.315 1349.37 345.731 1351.41 332.546 1340.88 331.195 1326.38L330.356 1317.37 325.589 1266.15 322.344 1231.44 317.577 1180.21 313.163 1132.99 308.385 1081.76 476.634 1081.31C502.499 1081.26 526.494 1089.56 545.992 1103.71 575.447 1125.09 594.68 1159.75 594.768 1198.85 594.941 1263.83 542.22 1316.84 477.247 1316.99" fill="#281E47" transform="matrix(0.64482 -0.764335 -0.764339 -0.644824 810.589 2037.77)"/><path d="M964.032 1022.08C965.789 1020.11 967.95 1018.59 970.45 1017.52 972.925 1016.47 975.723 1015.95 978.755 1015.95 981.117 1015.95 983.342 1016.27 985.366 1016.92 987.43 1017.57 989.269 1018.54 990.833 1019.79 992.405 1021.07 993.703 1022.64 994.671 1024.48 995.638 1026.31 996.243 1028.41 996.453 1030.73L996.638 1032.66 987.704 1032.66 987.567 1031.03C987.471 1029.88 987.196 1028.86 986.753 1027.99 986.318 1027.15 985.729 1026.41 985.011 1025.83 984.27 1025.24 983.375 1024.78 982.335 1024.46 981.23 1024.14 979.988 1023.97 978.642 1023.97 976.94 1023.97 975.409 1024.28 974.078 1024.87 972.764 1025.47 971.611 1026.34 970.668 1027.48 969.7 1028.64 968.942 1030.11 968.418 1031.84 967.87 1033.64 967.596 1035.76 967.596 1038.13 967.596 1040.5 967.878 1042.6 968.426 1044.39 968.966 1046.13 969.732 1047.6 970.7 1048.76 971.635 1049.88 972.788 1050.74 974.118 1051.31 975.489 1051.9 977.061 1052.2 978.787 1052.2 980.037 1052.2 981.222 1052.03 982.294 1051.71 983.342 1051.39 984.262 1050.94 985.028 1050.36 985.769 1049.8 986.374 1049.12 986.818 1048.33 987.253 1047.56 987.503 1046.68 987.567 1045.72L987.672 1044.06 996.654 1044.06 996.453 1046.02C996.235 1048.18 995.606 1050.17 994.582 1051.94 993.566 1053.69 992.244 1055.21 990.647 1056.46 989.067 1057.68 987.229 1058.63 985.189 1059.29 983.173 1059.96 981.004 1060.29 978.755 1060.29 975.739 1060.29 972.957 1059.75 970.49 1058.71 967.999 1057.65 965.846 1056.12 964.08 1054.16 962.322 1052.22 960.96 1049.85 960.025 1047.12 959.105 1044.44 958.638 1041.41 958.638 1038.13 958.638 1034.82 959.097 1031.79 960.008 1029.12 960.936 1026.39 962.29 1024.02 964.032 1022.08" fill="#231F20" transform="matrix(0.64482 -0.764335 -0.764339 -0.644824 810.589 2037.77)"/><path d="M1045.39 1031.98C1044.79 1033.76 1044.49 1035.83 1044.49 1038.13 1044.49 1040.4 1044.8 1042.45 1045.39 1044.22 1045.99 1045.94 1046.81 1047.41 1047.85 1048.58 1048.88 1049.74 1050.11 1050.63 1051.51 1051.24 1052.94 1051.86 1054.53 1052.17 1056.23 1052.17 1057.9 1052.17 1059.45 1051.86 1060.84 1051.26 1062.23 1050.66 1063.44 1049.77 1064.46 1048.63 1065.49 1047.47 1066.31 1045.99 1066.9 1044.26 1067.49 1042.48 1067.8 1040.42 1067.8 1038.13 1067.8 1035.83 1067.49 1033.77 1066.89 1031.99 1066.3 1030.24 1065.48 1028.75 1064.45 1027.57 1063.43 1026.41 1062.21 1025.51 1060.82 1024.9 1059.4 1024.29 1057.82 1023.97 1056.12 1023.97 1054.42 1023.97 1052.84 1024.29 1051.43 1024.9 1050.05 1025.51 1048.83 1026.41 1047.82 1027.57 1046.79 1028.75 1045.97 1030.23 1045.39 1031.98ZM1070.99 1022.2C1072.79 1024.16 1074.22 1026.52 1075.23 1029.22 1076.23 1031.91 1076.73 1034.9 1076.73 1038.13 1076.73 1041.37 1076.22 1044.38 1075.21 1047.07 1074.19 1049.78 1072.75 1052.14 1070.93 1054.07 1069.1 1056.01 1066.9 1057.55 1064.39 1058.62 1061.88 1059.68 1059.11 1060.23 1056.15 1060.23 1053.21 1060.23 1050.44 1059.69 1047.93 1058.63 1045.4 1057.58 1043.19 1056.05 1041.35 1054.1 1039.52 1052.17 1038.07 1049.81 1037.06 1047.1 1036.05 1044.41 1035.53 1041.4 1035.53 1038.13 1035.53 1034.89 1036.04 1031.88 1037.04 1029.18 1038.05 1026.46 1039.48 1024.09 1041.3 1022.15 1043.13 1020.19 1045.34 1018.65 1047.86 1017.57 1050.38 1016.49 1053.17 1015.95 1056.15 1015.95 1059.13 1015.95 1061.92 1016.5 1064.44 1017.59 1066.96 1018.68 1069.16 1020.23 1070.99 1022.2" fill="#231F20" transform="matrix(0.64482 -0.764335 -0.764339 -0.644824 810.589 2037.77)"/><path d="M1149.41 1016.64 1157.94 1016.64 1157.94 1059.53 1147.02 1059.53 1137.59 1030.7 1128.26 1059.53 1117.35 1059.53 1117.35 1016.64 1125.84 1016.64 1125.84 1040.96 1133.97 1016.64 1141.21 1016.64 1149.41 1041.01 1149.41 1016.64" fill="#231F20" transform="matrix(0.64482 -0.764335 -0.764339 -0.644824 810.589 2037.77)"/><path d="M1224.33 1048.82C1224.68 1048.19 1224.86 1047.3 1224.86 1046.15 1224.86 1045.17 1224.72 1044.31 1224.46 1043.6 1224.23 1042.98 1223.87 1042.48 1223.36 1042.06 1222.82 1041.6 1222.08 1041.25 1221.16 1041.01 1220.14 1040.74 1218.86 1040.6 1217.36 1040.6L1209.13 1040.6 1209.13 1051.3 1217.18 1051.3C1218.37 1051.3 1219.5 1051.22 1220.55 1051.05 1221.46 1050.92 1222.26 1050.65 1222.93 1050.26 1223.52 1049.92 1223.98 1049.44 1224.33 1048.82ZM1233.78 1046.27C1233.78 1048.85 1233.28 1051.05 1232.31 1052.8 1231.32 1054.54 1229.99 1055.93 1228.35 1056.96 1226.77 1057.92 1224.95 1058.61 1222.92 1058.99 1221 1059.35 1218.97 1059.53 1216.89 1059.53L1200.38 1059.53 1200.38 1016.64 1209.13 1016.64 1209.13 1032.37 1217.24 1032.37C1222.46 1032.37 1226.54 1033.54 1229.37 1035.86 1232.3 1038.25 1233.78 1041.76 1233.78 1046.27" fill="#231F20" transform="matrix(0.64482 -0.764335 -0.764339 -0.644824 810.589 2037.77)"/><path d="M1285.42 1036.33 1289.53 1047.67 1293.86 1036.33ZM1301.29 1016.64 1311.06 1016.64 1293.55 1059.53 1285.51 1059.53 1269.05 1016.64 1278.37 1016.64 1282.71 1028.59 1296.72 1028.59 1301.29 1016.64" fill="#231F20" transform="matrix(0.64482 -0.764335 -0.764339 -0.644824 810.589 2037.77)"/><path d="M1382.67 1016.64 1382.67 1059.53 1374.12 1059.53 1374.12 1032.57 1356.29 1059.53 1348.18 1059.53 1348.18 1016.64 1356.68 1016.64 1356.68 1043.56 1374.59 1016.64 1382.67 1016.64" fill="#231F20" transform="matrix(0.64482 -0.764335 -0.764339 -0.644824 810.589 2037.77)"/><path d="M1436.42 1016.64 1445.2 1016.64 1445.2 1034.56 1462.25 1059.53 1451.56 1059.53 1440.81 1042.96 1430.03 1059.53 1419.34 1059.53 1436.42 1034.56 1436.42 1016.64" fill="#231F20" transform="matrix(0.64482 -0.764335 -0.764339 -0.644824 810.589 2037.77)"/><path d="M1405.26 987.446 1460.68 987.446 1460.68 991.421 1405.26 991.421 1405.26 987.446" fill="#231F20" transform="matrix(0.64482 -0.764335 -0.764339 -0.644824 810.589 2037.77)"/><path d="M958.622 987.446 1014.05 987.446 1014.05 991.421 958.622 991.421 958.622 987.446" fill="#231F20" transform="matrix(0.64482 -0.764335 -0.764339 -0.644824 810.589 2037.77)"/><path d="M1039.04 990.502 1031.25 1002.47 1027.04 1002.47 1037.31 987.454 1037.31 976.392 1040.77 976.392 1040.77 987.454 1051.03 1002.47 1046.81 1002.47 1039.04 990.502" fill="#231F20" transform="matrix(0.64482 -0.764335 -0.764339 -0.644824 810.589 2037.77)"/><path d="M1085.98 985.011C1085.54 983.697 1084.92 982.593 1084.13 981.69 1083.34 980.778 1082.4 980.093 1081.31 979.617 1080.22 979.142 1079.02 978.9 1077.72 978.9 1076.42 978.9 1075.24 979.142 1074.15 979.617 1073.06 980.093 1072.12 980.778 1071.33 981.69 1070.54 982.593 1069.93 983.697 1069.49 985.011 1069.06 986.318 1068.84 987.809 1068.84 989.462 1068.84 991.107 1069.06 992.574 1069.5 993.872 1069.95 995.171 1070.57 996.275 1071.36 997.17 1072.16 998.073 1073.11 998.759 1074.2 999.234 1075.3 999.71 1076.5 999.944 1077.8 999.944 1079.07 999.944 1080.25 999.71 1081.32 999.242 1082.4 998.775 1083.34 998.098 1084.13 997.202 1084.92 996.308 1085.54 995.211 1085.98 993.905 1086.43 992.599 1086.64 991.123 1086.64 989.462 1086.64 987.809 1086.43 986.318 1085.98 985.011ZM1086.68 999.226C1085.58 1000.4 1084.27 1001.31 1082.74 1001.96 1081.22 1002.61 1079.56 1002.94 1077.74 1002.94 1075.94 1002.94 1074.28 1002.61 1072.75 1001.97 1071.22 1001.33 1069.9 1000.42 1068.79 999.242 1067.68 998.065 1066.81 996.654 1066.19 994.993 1065.57 993.332 1065.25 991.494 1065.25 989.462 1065.25 987.446 1065.56 985.608 1066.18 983.939 1066.79 982.278 1067.66 980.851 1068.76 979.674 1069.87 978.489 1071.18 977.569 1072.71 976.916 1074.24 976.263 1075.92 975.933 1077.74 975.933 1079.56 975.933 1081.24 976.263 1082.77 976.924 1084.3 977.586 1085.61 978.513 1086.71 979.698 1087.81 980.891 1088.67 982.31 1089.29 983.971 1089.9 985.624 1090.21 987.454 1090.21 989.462 1090.21 991.478 1089.9 993.316 1089.27 994.977 1088.65 996.63 1087.79 998.049 1086.68 999.226" fill="#231F20" transform="matrix(0.64482 -0.764335 -0.764339 -0.644824 810.589 2037.77)"/><path d="M1124.17 987.454C1124.17 985.721 1124.02 984.31 1123.73 983.221 1123.43 982.125 1123 981.27 1122.44 980.641 1121.87 980.021 1121.16 979.601 1120.31 979.375 1119.47 979.15 1118.49 979.037 1117.4 979.037 1116.31 979.037 1115.35 979.142 1114.5 979.367 1113.66 979.585 1112.95 979.996 1112.37 980.617 1111.79 981.23 1111.36 982.093 1111.05 983.189 1110.75 984.286 1110.6 985.713 1110.6 987.454L1110.6 1002.47 1107.15 1002.47 1107.15 987.398C1107.15 986.527 1107.18 985.64 1107.24 984.729 1107.29 983.826 1107.44 982.947 1107.66 982.101 1107.89 981.254 1108.22 980.456 1108.66 979.714 1109.09 978.964 1109.69 978.311 1110.45 977.755 1111.2 977.198 1112.15 976.755 1113.28 976.424 1114.41 976.094 1115.78 975.933 1117.4 975.933 1119.44 975.933 1121.11 976.191 1122.44 976.715 1123.76 977.231 1124.81 977.989 1125.58 978.972 1126.35 979.948 1126.89 981.149 1127.19 982.576 1127.5 983.995 1127.66 985.6 1127.66 987.398L1127.66 1002.47 1124.17 1002.47 1124.17 987.454" fill="#231F20" transform="matrix(0.64482 -0.764335 -0.764339 -0.644824 810.589 2037.77)"/><path d="M1159.74 990.897C1158.98 990.736 1158.06 990.655 1156.99 990.655L1149.24 990.655 1149.24 999.581 1157.49 999.581C1159.36 999.581 1160.77 999.226 1161.69 998.509 1162.62 997.799 1163.08 996.687 1163.08 995.187 1163.08 994.348 1162.97 993.647 1162.73 993.066 1162.5 992.486 1162.14 992.026 1161.65 991.671 1161.15 991.317 1160.52 991.059 1159.74 990.897ZM1160.79 988.212 1160.79 988.269C1161.69 988.446 1162.5 988.736 1163.23 989.148 1163.95 989.551 1164.56 990.051 1165.07 990.639 1165.58 991.228 1165.97 991.905 1166.24 992.671 1166.51 993.437 1166.64 994.276 1166.64 995.187 1166.64 996.227 1166.44 997.243 1166.03 998.243 1165.62 999.234 1165.02 1000.08 1164.23 1000.77 1163.77 1001.16 1163.29 1001.47 1162.78 1001.69 1162.27 1001.92 1161.73 1002.09 1161.16 1002.2 1160.59 1002.31 1159.98 1002.4 1159.35 1002.43 1158.72 1002.45 1158.04 1002.47 1157.34 1002.47L1145.79 1002.47 1145.79 976.392 1149.24 976.392 1149.24 987.535 1155.64 987.535C1156.31 987.535 1156.94 987.43 1157.54 987.229 1158.14 987.019 1158.69 986.737 1159.18 986.366 1159.67 986.003 1160.11 985.568 1160.47 985.06 1160.83 984.552 1161.13 983.995 1161.35 983.391L1163.79 976.392 1167.55 976.392 1164.97 983.488C1164.01 986.06 1162.61 987.632 1160.79 988.212" fill="#231F20" transform="matrix(0.64482 -0.764335 -0.764339 -0.644824 810.589 2037.77)"/><path d="M1202.27 988.285C1201.75 988.825 1201.15 989.285 1200.45 989.664 1199.76 990.043 1199.02 990.365 1198.24 990.639 1197.47 990.905 1196.66 991.139 1195.84 991.325 1195.02 991.51 1194.22 991.688 1193.44 991.849 1192.29 992.099 1191.33 992.341 1190.56 992.574 1189.79 992.816 1189.17 993.082 1188.71 993.373 1188.25 993.671 1187.92 994.018 1187.73 994.405 1187.54 994.8 1187.44 995.267 1187.44 995.824 1187.44 997.041 1187.96 998.017 1189.01 998.734 1190.06 999.452 1191.55 999.815 1193.49 999.815 1197.46 999.815 1199.62 998.234 1199.97 995.09L1203.32 995.09C1203.28 996.308 1203.02 997.404 1202.52 998.38 1202.01 999.347 1201.32 1000.17 1200.45 1000.84 1199.57 1001.52 1198.54 1002.03 1197.34 1002.4 1196.14 1002.76 1194.8 1002.94 1193.34 1002.94 1191.95 1002.94 1190.69 1002.76 1189.55 1002.4 1188.41 1002.03 1187.44 1001.53 1186.62 1000.9 1185.8 1000.25 1185.17 999.484 1184.72 998.597 1184.27 997.71 1184.05 996.743 1184.05 995.687 1184.05 994.727 1184.21 993.872 1184.54 993.123 1184.87 992.381 1185.37 991.72 1186.05 991.147 1186.74 990.575 1187.61 990.075 1188.66 989.656 1189.72 989.228 1190.99 988.849 1192.45 988.519 1193.95 988.212 1195.23 987.906 1196.27 987.616 1197.31 987.317 1198.15 986.987 1198.78 986.608 1199.42 986.237 1199.88 985.802 1200.16 985.31 1200.44 984.818 1200.58 984.205 1200.58 983.488 1200.58 982.794 1200.43 982.173 1200.12 981.625 1199.81 981.085 1199.38 980.617 1198.82 980.23 1198.24 979.843 1197.57 979.553 1196.77 979.343 1195.97 979.142 1195.08 979.037 1194.11 979.037 1193.11 979.037 1192.16 979.15 1191.28 979.375 1190.41 979.601 1189.62 979.948 1188.95 980.424 1188.26 980.899 1187.7 981.496 1187.27 982.23 1186.83 982.955 1186.57 983.81 1186.48 984.802L1183.17 984.802C1183.2 983.504 1183.46 982.31 1183.93 981.222 1184.41 980.141 1185.11 979.206 1186.03 978.416 1186.94 977.634 1188.09 977.029 1189.46 976.586 1190.84 976.15 1192.45 975.933 1194.28 975.933 1195.69 975.933 1196.98 976.126 1198.15 976.521 1199.34 976.916 1200.36 977.456 1201.22 978.15 1202.08 978.843 1202.75 979.666 1203.23 980.625 1203.72 981.585 1203.96 982.633 1203.96 983.778 1203.96 984.769 1203.81 985.632 1203.51 986.366 1203.2 987.108 1202.79 987.745 1202.27 988.285" fill="#231F20" transform="matrix(0.64482 -0.764335 -0.764339 -0.644824 810.589 2037.77)"/><path d="M1224.54 1002.47 1221.09 1002.47 1221.09 976.392 1237.24 976.392 1237.24 979.496 1224.54 979.496 1224.54 1002.47" fill="#231F20" transform="matrix(0.64482 -0.764335 -0.764339 -0.644824 810.589 2037.77)"/><path d="M1273.24 985.011C1272.79 983.697 1272.17 982.593 1271.38 981.69 1270.59 980.778 1269.65 980.093 1268.56 979.617 1267.46 979.142 1266.27 978.9 1264.97 978.9 1263.67 978.9 1262.49 979.142 1261.4 979.617 1260.31 980.093 1259.38 980.778 1258.59 981.69 1257.8 982.593 1257.18 983.697 1256.75 985.011 1256.3 986.318 1256.09 987.809 1256.09 989.462 1256.09 991.107 1256.31 992.574 1256.76 993.872 1257.2 995.171 1257.82 996.275 1258.62 997.17 1259.41 998.073 1260.36 998.759 1261.46 999.234 1262.55 999.71 1263.75 999.944 1265.05 999.944 1266.33 999.944 1267.49 999.71 1268.58 999.242 1269.66 998.775 1270.59 998.098 1271.38 997.202 1272.17 996.308 1272.79 995.211 1273.24 993.905 1273.68 992.599 1273.9 991.123 1273.9 989.462 1273.9 987.809 1273.68 986.318 1273.24 985.011ZM1273.94 999.226C1272.83 1000.4 1271.52 1001.31 1269.99 1001.96 1268.47 1002.61 1266.8 1002.94 1265 1002.94 1263.2 1002.94 1261.53 1002.61 1260 1001.97 1258.47 1001.33 1257.15 1000.42 1256.04 999.242 1254.93 998.065 1254.06 996.654 1253.44 994.993 1252.81 993.332 1252.51 991.494 1252.51 989.462 1252.51 987.446 1252.81 985.608 1253.43 983.939 1254.05 982.278 1254.91 980.851 1256.01 979.674 1257.12 978.489 1258.43 977.569 1259.96 976.916 1261.49 976.263 1263.17 975.933 1265 975.933 1266.82 975.933 1268.49 976.263 1270.03 976.924 1271.55 977.586 1272.86 978.513 1273.96 979.698 1275.07 980.891 1275.92 982.31 1276.54 983.971 1277.15 985.624 1277.46 987.454 1277.46 989.462 1277.46 991.478 1277.15 993.316 1276.53 994.977 1275.9 996.63 1275.04 998.049 1273.94 999.226" fill="#231F20" transform="matrix(0.64482 -0.764335 -0.764339 -0.644824 810.589 2037.77)"/><path d="M1307.29 986.592 1314.18 986.592 1314.18 982.601C1313.25 981.367 1312.1 980.44 1310.72 979.827 1309.33 979.206 1307.69 978.9 1305.78 978.9 1304.44 978.9 1303.22 979.142 1302.12 979.617 1301.02 980.093 1300.08 980.778 1299.29 981.69 1298.5 982.593 1297.88 983.697 1297.45 985.011 1297.01 986.318 1296.8 987.809 1296.8 989.462 1296.8 991.131 1297.01 992.623 1297.45 993.921 1297.88 995.227 1298.5 996.324 1299.28 997.219 1300.06 998.114 1301 998.791 1302.1 999.25 1303.2 999.718 1304.41 999.944 1305.75 999.944 1306.87 999.944 1307.89 999.823 1308.81 999.581 1309.73 999.339 1310.52 998.984 1311.19 998.525 1311.86 998.057 1312.39 997.493 1312.78 996.823 1313.17 996.154 1313.4 995.396 1313.46 994.55L1317.05 994.55C1316.94 995.824 1316.57 996.977 1315.95 998.009 1315.33 999.041 1314.53 999.928 1313.52 1000.65 1312.52 1001.38 1311.36 1001.94 1310.03 1002.34 1308.7 1002.73 1307.25 1002.94 1305.7 1002.94 1303.85 1002.94 1302.16 1002.61 1300.63 1001.98 1299.1 1001.35 1297.79 1000.44 1296.69 999.275 1295.59 998.106 1294.73 996.687 1294.13 995.034 1293.51 993.373 1293.21 991.518 1293.21 989.462 1293.21 987.43 1293.51 985.584 1294.11 983.923 1294.72 982.254 1295.57 980.835 1296.67 979.65 1297.78 978.472 1299.11 977.553 1300.66 976.908 1302.21 976.255 1303.92 975.933 1305.81 975.933 1309.59 975.933 1312.38 976.997 1314.18 979.134L1315.07 976.392 1317.55 976.392 1317.55 989.712 1307.29 989.712 1307.29 986.592" fill="#231F20" transform="matrix(0.64482 -0.764335 -0.764339 -0.644824 810.589 2037.77)"/><path d="M1339.63 987.092 1344.01 999.154 1348.62 987.092ZM1342.18 1002.47 1332.18 976.392 1335.82 976.392 1338.69 984.318 1349.62 984.318 1352.65 976.392 1356.56 976.392 1345.92 1002.47 1342.18 1002.47" fill="#231F20" transform="matrix(0.64482 -0.764335 -0.764339 -0.644824 810.589 2037.77)"/><path d="M1388.95 981.867 1375.33 1002.47 1371.76 1002.47 1371.76 976.392 1375.04 976.392 1375.04 996.961 1388.72 976.392 1392.27 976.392 1392.27 1002.47 1388.95 1002.47 1388.95 981.867" fill="#231F20" transform="matrix(0.64482 -0.764335 -0.764339 -0.644824 810.589 2037.77)"/><g clip-path="url(#clip4)"><path d="M1301.54 1117.98 1121.19 1118.06 1124.97 1140.11 1131.92 1180.79 1134.09 1193.65 1151.66 1296.33 1158.77 1338.05C1159.4 1341.65 1162.83 1344.06 1166.44 1343.44 1170.01 1342.82 1172.46 1339.38 1171.82 1335.8L1164.98 1296.37 1147.17 1193.66 1251.39 1193.97 1258.27 1233.73 1262.29 1256.91 1301.15 1257.02C1339.5 1257.12 1370.74 1226.02 1370.86 1187.7 1370.97 1149.37 1339.86 1118.11 1301.54 1117.98ZM1301.03 1296.74 1269.18 1296.63 1274.62 1328.02C1284.92 1387.38 1245 1444.04 1185.68 1454.33 1126.31 1464.62 1069.66 1424.71 1059.37 1365.38L1027.82 1180.79 1023.03 1152.7 1023.02 1152.67 1017.12 1118.09 1010.3 1078.17 1050.79 1078.19 1057.6 1118.08 1061.26 1139.72 1068.24 1180.79 1098.5 1358.58C1105.07 1396.34 1141.13 1421.74 1178.88 1415.19 1216.63 1408.64 1242.06 1372.59 1235.49 1334.82L1228.85 1296.54 1221.96 1256.78 1217.93 1233.61 1194.41 1233.53 1198.42 1256.73 1205.32 1296.47 1210.95 1328.99C1215.32 1354.19 1198.4 1378.2 1173.22 1382.58 1148.05 1386.94 1124.02 1370 1119.65 1344.84L1090.62 1180.8 1083.39 1139.84 1079.53 1118.07 1072.7 1078.2 1085.9 1078.19 1085.93 1078.19 1114.39 1078.2 1301.66 1078.27C1361.87 1078.44 1410.74 1127.57 1410.58 1187.82 1410.41 1248.03 1361.27 1296.9 1301.03 1296.74" fill="url(#fill5)" transform="matrix(0.64482 -0.764335 -0.764339 -0.644824 810.589 2037.77)"/></g><path d="M155.731 202.774C157.488 200.814 159.646 199.282 162.146 198.226 164.624 197.178 167.42 196.646 170.455 196.646 172.816 196.646 175.041 196.976 177.068 197.613 179.131 198.275 180.968 199.242 182.529 200.5 184.107 201.774 185.4 203.346 186.371 205.176 187.341 207.007 187.94 209.111 188.155 211.425L188.335 213.368 179.404 213.368 179.269 211.74C179.172 210.587 178.899 209.563 178.455 208.7 178.019 207.845 177.431 207.12 176.708 206.531 175.972 205.934 175.072 205.475 174.034 205.168 172.933 204.838 171.69 204.677 170.339 204.677 168.643 204.677 167.109 204.983 165.776 205.58 164.461 206.168 163.315 207.047 162.37 208.176 161.403 209.337 160.645 210.804 160.118 212.546 159.57 214.344 159.293 216.456 159.293 218.835 159.293 221.197 159.574 223.31 160.129 225.092 160.668 226.825 161.43 228.293 162.399 229.454 163.336 230.575 164.489 231.437 165.821 232.01 167.191 232.598 168.76 232.905 170.484 232.905 171.738 232.905 172.92 232.735 173.997 232.413 175.041 232.09 175.961 231.639 176.729 231.058 177.468 230.502 178.071 229.825 178.519 229.035 178.954 228.269 179.206 227.39 179.266 226.422L179.37 224.761 188.352 224.761 188.153 226.712C187.935 228.873 187.305 230.873 186.282 232.639 185.268 234.396 183.944 235.912 182.343 237.154 180.764 238.379 178.929 239.339 176.891 240 174.871 240.653 172.706 240.984 170.455 240.984 167.436 240.984 164.655 240.452 162.188 239.403 159.699 238.347 157.543 236.823 155.778 234.864 154.025 232.921 152.661 230.55 151.725 227.825 150.803 225.14 150.335 222.117 150.335 218.835 150.335 215.529 150.796 212.498 151.708 209.813 152.635 207.087 153.988 204.717 155.731 202.774" fill="#231F20" transform="matrix(0.64482 -0.764335 -0.764339 -0.644824 810.589 2037.77)"/><path d="M237.089 212.675C236.493 214.465 236.191 216.537 236.191 218.835 236.191 221.101 236.496 223.149 237.099 224.914 237.688 226.64 238.513 228.107 239.553 229.284 240.576 230.437 241.809 231.332 243.217 231.945 244.643 232.558 246.231 232.872 247.935 232.872 249.599 232.872 251.151 232.566 252.548 231.961 253.929 231.357 255.142 230.47 256.155 229.325 257.185 228.164 258.005 226.696 258.596 224.963 259.198 223.189 259.504 221.125 259.504 218.835 259.504 216.537 259.198 214.465 258.595 212.683 258.003 210.941 257.18 209.45 256.148 208.265 255.136 207.112 253.914 206.208 252.518 205.604 251.103 204.983 249.522 204.677 247.818 204.677 246.115 204.677 244.54 204.983 243.137 205.604 241.749 206.208 240.531 207.103 239.519 208.265 238.487 209.45 237.669 210.933 237.089 212.675ZM262.684 202.903C264.492 204.854 265.919 207.216 266.926 209.925 267.926 212.61 268.433 215.61 268.433 218.835 268.433 222.076 267.92 225.084 266.909 227.769 265.891 230.478 264.451 232.832 262.631 234.775 260.802 236.718 258.6 238.25 256.087 239.315 253.58 240.387 250.807 240.927 247.848 240.927 244.909 240.927 242.144 240.395 239.629 239.339 237.104 238.275 234.891 236.751 233.053 234.808 231.22 232.864 229.776 230.51 228.756 227.801 227.745 225.116 227.232 222.092 227.232 218.835 227.232 215.594 227.74 212.578 228.739 209.885 229.747 207.16 231.182 204.797 233.001 202.846 234.83 200.895 237.036 199.355 239.559 198.275 242.077 197.194 244.865 196.646 247.848 196.646 250.831 196.646 253.621 197.202 256.14 198.291 258.665 199.379 260.866 200.935 262.684 202.903" fill="#231F20" transform="matrix(0.64482 -0.764335 -0.764339 -0.644824 810.589 2037.77)"/><path d="M341.111 197.347 349.634 197.347 349.634 240.234 338.721 240.234 329.289 211.401 319.961 240.234 309.043 240.234 309.043 197.347 317.537 197.347 317.537 221.657 325.677 197.347 332.911 197.347 341.111 221.713 341.111 197.347" fill="#231F20" transform="matrix(0.64482 -0.764335 -0.764339 -0.644824 810.589 2037.77)"/><path d="M416.025 229.518C416.377 228.889 416.556 227.994 416.556 226.858 416.556 225.874 416.422 225.011 416.159 224.31 415.928 223.689 415.567 223.181 415.059 222.754 414.517 222.302 413.778 221.955 412.862 221.713 411.842 221.439 410.562 221.302 409.056 221.302L400.831 221.302 400.831 232.002 408.882 232.002C410.066 232.002 411.198 231.921 412.248 231.76 413.164 231.615 413.965 231.349 414.629 230.962 415.219 230.615 415.675 230.147 416.025 229.518ZM425.484 226.97C425.484 229.559 424.987 231.752 424.007 233.493 423.028 235.235 421.697 236.638 420.049 237.654 418.472 238.629 416.644 239.315 414.615 239.694 412.696 240.048 410.669 240.234 408.591 240.234L392.076 240.234 392.076 197.347 400.831 197.347 400.831 213.07 408.94 213.07C414.164 213.07 418.246 214.247 421.068 216.553 423.999 218.956 425.484 222.455 425.484 226.97" fill="#231F20" transform="matrix(0.64482 -0.764335 -0.764339 -0.644824 810.589 2037.77)"/><path d="M477.118 217.029 481.23 228.365 485.557 217.029ZM492.989 197.347 502.754 197.347 485.258 240.234 477.204 240.234 460.753 197.347 470.076 197.347 474.407 209.297 488.424 209.297 492.989 197.347" fill="#231F20" transform="matrix(0.64482 -0.764335 -0.764339 -0.644824 810.589 2037.77)"/><path d="M574.367 197.347 574.367 240.234 565.816 240.234 565.816 213.28 547.991 240.234 539.882 240.234 539.882 197.347 548.376 197.347 548.376 224.269 566.291 197.347 574.367 197.347" fill="#231F20" transform="matrix(0.64482 -0.764335 -0.764339 -0.644824 810.589 2037.77)"/><path d="M628.119 197.347 636.902 197.347 636.902 215.255 653.956 240.234 643.263 240.234 632.509 223.657 621.729 240.234 611.033 240.234 628.119 215.255 628.119 197.347" fill="#231F20" transform="matrix(0.64482 -0.764335 -0.764339 -0.644824 810.589 2037.77)"/><path d="M596.954 168.144 652.382 168.144 652.382 172.127 596.954 172.127 596.954 168.144" fill="#231F20" transform="matrix(0.64482 -0.764335 -0.764339 -0.644824 810.589 2037.77)"/><path d="M150.323 168.144 205.751 168.144 205.751 172.127 150.323 172.127 150.323 168.144" fill="#231F20" transform="matrix(0.64482 -0.764335 -0.764339 -0.644824 810.589 2037.77)"/><path d="M230.742 171.207 222.956 183.173 218.735 183.173 229.007 168.16 229.007 157.097 232.477 157.097 232.477 168.16 242.729 183.173 238.509 183.173 230.742 171.207" fill="#231F20" transform="matrix(0.64482 -0.764335 -0.764339 -0.644824 810.589 2037.77)"/><path d="M277.68 165.709C277.237 164.402 276.62 163.29 275.83 162.387 275.04 161.484 274.098 160.79 273.007 160.315 271.914 159.839 270.72 159.605 269.422 159.605 268.124 159.605 266.933 159.839 265.847 160.315 264.761 160.79 263.824 161.484 263.033 162.387 262.243 163.29 261.629 164.402 261.193 165.709 260.756 167.023 260.537 168.506 260.537 170.167 260.537 171.812 260.759 173.28 261.202 174.578 261.646 175.876 262.265 176.972 263.062 177.875 263.858 178.77 264.806 179.456 265.905 179.932 267.003 180.407 268.202 180.649 269.499 180.649 270.771 180.649 271.946 180.415 273.026 179.948 274.105 179.472 275.04 178.795 275.83 177.9 276.62 177.013 277.237 175.908 277.68 174.61 278.123 173.304 278.346 171.82 278.346 170.167 278.346 168.506 278.123 167.023 277.68 165.709ZM278.384 179.923C277.279 181.101 275.965 182.012 274.442 182.665 272.919 183.31 271.253 183.632 269.441 183.632 267.642 183.632 265.979 183.318 264.449 182.673 262.92 182.028 261.6 181.117 260.489 179.948 259.378 178.77 258.51 177.351 257.888 175.699 257.264 174.038 256.953 172.191 256.953 170.167 256.953 168.144 257.26 166.305 257.878 164.644 258.495 162.975 259.355 161.556 260.46 160.371 261.565 159.194 262.882 158.275 264.411 157.622 265.94 156.96 267.616 156.638 269.441 156.638 271.266 156.638 272.943 156.968 274.471 157.63 276 158.291 277.314 159.218 278.413 160.403 279.511 161.588 280.369 163.016 280.985 164.668 281.602 166.329 281.911 168.16 281.911 170.167 281.911 172.183 281.599 174.021 280.976 175.674 280.352 177.335 279.489 178.746 278.384 179.923" fill="#231F20" transform="matrix(0.64482 -0.764335 -0.764339 -0.644824 810.589 2037.77)"/><path d="M315.869 168.16C315.869 166.426 315.72 165.015 315.425 163.919 315.13 162.83 314.7 161.967 314.134 161.347 313.568 160.726 312.862 160.298 312.015 160.073 311.166 159.847 310.196 159.734 309.104 159.734 308.012 159.734 307.045 159.847 306.204 160.065 305.362 160.282 304.652 160.702 304.074 161.314 303.495 161.935 303.055 162.79 302.754 163.894 302.451 164.991 302.301 166.41 302.301 168.16L302.301 183.173 298.85 183.173 298.85 168.103C298.85 167.232 298.88 166.337 298.938 165.434 298.995 164.523 299.137 163.653 299.362 162.806 299.586 161.951 299.918 161.161 300.355 160.411 300.791 159.669 301.389 159.016 302.146 158.452 302.905 157.896 303.849 157.452 304.98 157.13 306.11 156.799 307.485 156.638 309.104 156.638 311.134 156.638 312.81 156.896 314.134 157.412 315.457 157.936 316.505 158.686 317.276 159.669 318.046 160.653 318.586 161.855 318.895 163.274 319.203 164.693 319.357 166.305 319.357 168.103L319.357 183.173 315.869 183.173 315.869 168.16" fill="#231F20" transform="matrix(0.64482 -0.764335 -0.764339 -0.644824 810.589 2037.77)"/><path d="M351.446 171.603C350.675 171.441 349.756 171.361 348.69 171.361L340.943 171.361 340.943 180.278 349.191 180.278C351.066 180.278 352.467 179.923 353.393 179.214 354.317 178.496 354.78 177.392 354.78 175.892 354.78 175.053 354.664 174.344 354.433 173.771 354.202 173.191 353.839 172.723 353.344 172.369 352.849 172.014 352.217 171.764 351.446 171.603ZM352.486 168.91 352.486 168.966C353.385 169.151 354.199 169.442 354.925 169.845 355.65 170.248 356.267 170.748 356.774 171.336 357.282 171.933 357.672 172.61 357.941 173.376 358.211 174.134 358.346 174.973 358.346 175.892 358.346 176.932 358.14 177.948 357.729 178.94 357.318 179.94 356.72 180.786 355.936 181.48 355.474 181.859 354.988 182.165 354.482 182.391 353.974 182.616 353.435 182.786 352.863 182.907 352.29 183.02 351.687 183.092 351.051 183.124 350.415 183.157 349.743 183.173 349.037 183.173L337.493 183.173 337.493 157.097 340.943 157.097 340.943 168.24 347.341 168.24C348.008 168.24 348.641 168.136 349.239 167.926 349.837 167.724 350.383 167.434 350.878 167.071 351.372 166.708 351.803 166.265 352.169 165.757 352.535 165.249 352.827 164.701 353.045 164.096L355.493 157.097 359.252 157.097 356.669 164.193C355.705 166.757 354.311 168.337 352.486 168.91" fill="#231F20" transform="matrix(0.64482 -0.764335 -0.764339 -0.644824 810.589 2037.77)"/><path d="M393.971 168.99C393.451 169.53 392.844 169.99 392.149 170.369 391.456 170.748 390.72 171.07 389.942 171.336 389.165 171.611 388.365 171.836 387.543 172.022 386.721 172.207 385.918 172.385 385.135 172.554 383.99 172.796 383.034 173.038 382.263 173.28 381.492 173.513 380.875 173.78 380.413 174.078 379.949 174.368 379.622 174.715 379.429 175.11 379.237 175.497 379.141 175.973 379.141 176.521 379.141 177.746 379.664 178.714 380.711 179.432 381.759 180.157 383.252 180.512 385.192 180.512 389.162 180.512 391.32 178.94 391.668 175.795L395.021 175.795C394.983 177.013 394.712 178.109 394.212 179.077 393.711 180.044 393.022 180.867 392.149 181.544 391.275 182.221 390.238 182.737 389.037 183.092 387.836 183.455 386.502 183.632 385.038 183.632 383.65 183.632 382.388 183.455 381.251 183.092 380.114 182.737 379.137 182.238 378.321 181.592 377.505 180.947 376.873 180.19 376.423 179.303 375.973 178.416 375.748 177.44 375.748 176.392 375.748 175.424 375.913 174.57 376.24 173.828 376.568 173.078 377.072 172.425 377.753 171.852 378.434 171.28 379.304 170.78 380.365 170.353 381.425 169.934 382.687 169.555 384.151 169.216 385.655 168.91 386.927 168.611 387.968 168.313 389.008 168.015 389.847 167.684 390.483 167.313 391.118 166.942 391.578 166.507 391.861 166.015 392.143 165.515 392.284 164.91 392.284 164.193 392.284 163.499 392.13 162.879 391.822 162.33 391.513 161.782 391.076 161.314 390.511 160.935 389.946 160.548 389.265 160.25 388.469 160.048 387.672 159.839 386.785 159.734 385.809 159.734 384.806 159.734 383.865 159.847 382.985 160.073 382.105 160.298 381.325 160.653 380.644 161.129 379.962 161.605 379.404 162.201 378.967 162.927 378.53 163.653 378.267 164.507 378.177 165.499L374.862 165.499C374.901 164.201 375.158 163.008 375.633 161.927 376.108 160.839 376.805 159.903 377.724 159.121 378.642 158.339 379.789 157.726 381.164 157.291 382.538 156.856 384.145 156.638 385.982 156.638 387.382 156.638 388.674 156.831 389.856 157.226 391.037 157.613 392.06 158.154 392.92 158.847 393.781 159.549 394.453 160.371 394.934 161.33 395.416 162.282 395.657 163.338 395.657 164.475 395.657 165.467 395.506 166.329 395.203 167.071 394.902 167.813 394.492 168.45 393.971 168.99" fill="#231F20" transform="matrix(0.64482 -0.764335 -0.764339 -0.644824 810.589 2037.77)"/><path d="M416.24 183.173 412.79 183.173 412.79 157.097 428.94 157.097 428.94 160.202 416.24 160.202 416.24 183.173" fill="#231F20" transform="matrix(0.64482 -0.764335 -0.764339 -0.644824 810.589 2037.77)"/><path d="M464.932 165.709C464.489 164.402 463.872 163.29 463.083 162.387 462.292 161.484 461.35 160.79 460.259 160.315 459.166 159.839 457.972 159.605 456.674 159.605 455.376 159.605 454.184 159.839 453.099 160.315 452.013 160.79 451.075 161.484 450.285 162.387 449.495 163.29 448.881 164.402 448.445 165.709 448.008 167.023 447.789 168.506 447.789 170.167 447.789 171.812 448.011 173.28 448.454 174.578 448.898 175.876 449.518 176.972 450.314 177.875 451.11 178.77 452.058 179.456 453.156 179.932 454.255 180.407 455.453 180.649 456.751 180.649 458.023 180.649 459.199 180.415 460.277 179.948 461.357 179.472 462.292 178.795 463.083 177.9 463.872 177.013 464.489 175.908 464.932 174.61 465.376 173.304 465.597 171.82 465.597 170.167 465.597 168.506 465.376 167.023 464.932 165.709ZM465.636 179.923C464.531 181.101 463.217 182.012 461.694 182.665 460.173 183.31 458.504 183.632 456.694 183.632 454.895 183.632 453.231 183.318 451.702 182.673 450.172 182.028 448.852 181.117 447.741 179.948 446.63 178.77 445.762 177.351 445.139 175.699 444.516 174.038 444.205 172.191 444.205 170.167 444.205 168.144 444.513 166.305 445.13 164.644 445.747 162.975 446.607 161.556 447.712 160.371 448.818 159.194 450.134 158.275 451.663 157.622 453.192 156.96 454.868 156.638 456.694 156.638 458.517 156.638 460.194 156.968 461.723 157.63 463.253 158.291 464.566 159.218 465.664 160.403 466.763 161.588 467.621 163.016 468.237 164.668 468.854 166.329 469.163 168.16 469.163 170.167 469.163 172.183 468.851 174.021 468.228 175.674 467.604 177.335 466.741 178.746 465.636 179.923" fill="#231F20" transform="matrix(0.64482 -0.764335 -0.764339 -0.644824 810.589 2037.77)"/><path d="M498.996 167.289 505.876 167.289 505.876 163.306C504.952 162.072 503.799 161.145 502.417 160.524 501.036 159.911 499.388 159.605 497.474 159.605 496.137 159.605 494.921 159.839 493.822 160.315 492.723 160.79 491.779 161.484 490.988 162.387 490.199 163.29 489.585 164.402 489.148 165.709 488.711 167.023 488.494 168.506 488.494 170.167 488.494 171.836 488.711 173.32 489.148 174.626 489.585 175.932 490.196 177.029 490.979 177.924 491.762 178.811 492.704 179.488 493.802 179.956 494.901 180.415 496.119 180.649 497.455 180.649 498.572 180.649 499.591 180.528 500.51 180.278 501.428 180.036 502.221 179.682 502.89 179.222 503.558 178.762 504.087 178.198 504.48 177.529 504.871 176.86 505.099 176.102 505.164 175.255L508.748 175.255C508.633 176.521 508.267 177.674 507.649 178.714 507.033 179.746 506.224 180.625 505.222 181.351 504.219 182.076 503.054 182.641 501.724 183.036 500.394 183.439 498.951 183.632 497.397 183.632 495.547 183.632 493.857 183.318 492.328 182.681 490.799 182.044 489.485 181.141 488.387 179.972 487.288 178.803 486.434 177.392 485.824 175.731 485.213 174.078 484.908 172.223 484.908 170.167 484.908 168.136 485.21 166.289 485.813 164.62 486.417 162.959 487.272 161.54 488.378 160.355 489.482 159.17 490.809 158.258 492.357 157.605 493.905 156.96 495.624 156.638 497.513 156.638 501.29 156.638 504.078 157.702 505.876 159.831L506.763 157.097 509.25 157.097 509.25 170.417 498.996 170.417 498.996 167.289" fill="#231F20" transform="matrix(0.64482 -0.764335 -0.764339 -0.644824 810.589 2037.77)"/><path d="M531.336 167.797 535.711 179.859 540.317 167.797ZM533.88 183.173 523.877 157.097 527.52 157.097 530.391 165.015 541.319 165.015 544.344 157.097 548.257 157.097 537.618 183.173 533.88 183.173" fill="#231F20" transform="matrix(0.64482 -0.764335 -0.764339 -0.644824 810.589 2037.77)"/><path d="M580.654 162.572 567.029 183.173 563.463 183.173 563.463 157.097 566.739 157.097 566.739 177.658 580.423 157.097 583.97 157.097 583.97 183.173 580.654 183.173 580.654 162.572" fill="#231F20" transform="matrix(0.64482 -0.764335 -0.764339 -0.644824 810.589 2037.77)"/><path d="M465.713 319.194C403.642 309.454 340.904 314.138 278.433 316.315 268.294 316.654 261.034 319.194 255.914 323.475 255.88 323.475 255.847 323.507 255.847 323.54 251.565 328.66 249.022 335.924 248.687 346.067 246.512 408.531 241.827 471.276 251.565 533.344 259.896 586.543 304.131 622.544 357.869 624.02 398.624 625.156 435.631 605.015 456.007 572.893 439.781 573.933 422.849 572.393 405.583 568.039 400.397 566.741 395.345 565.096 390.426 563.153 347.228 546.188 314.504 506.108 302.492 460.294L302.492 460.262C296.769 438.517 295.732 415.497 300.45 393.042 301.989 385.713 304.398 379.859 308.448 376.045 312.295 372.03 318.117 369.619 325.412 368.079 347.864 363.362 370.884 364.394 392.634 370.119L392.668 370.119C438.475 382.133 478.56 414.86 495.525 458.021 497.466 462.939 499.106 467.994 500.411 473.179 504.76 490.442 506.3 507.406 505.262 523.637 537.385 503.262 557.528 466.253 556.39 425.503 554.917 371.764 518.914 327.523 465.713 319.194ZM453.432 450.361C443.528 435.735 430.142 423.294 413.814 414.489 405.724 410.119 398.255 406.741 391.407 404.354 384.908 402.096 377.92 401.548 371.126 402.637 370.496 402.742 369.874 402.846 369.26 402.959 352.027 406.039 338.406 419.649 335.324 436.888 335.214 437.501 335.108 438.121 335.008 438.75 333.916 445.547 334.458 452.53 336.719 459.029 339.1 465.874 342.49 473.34 346.86 481.443 355.693 497.739 368.107 511.155 382.73 521.032 392.299 527.515 402.873 532.506 413.948 535.787 431.85 541.109 451.157 542.044 470.262 537.892 474.412 518.791 473.475 499.48 468.155 481.58 464.876 470.47 459.89 459.932 453.432 450.361ZM585.969 464.149C572.885 513.469 539.592 549.002 496.864 564.499 481.338 607.257 445.836 640.516 396.515 653.562 335.818 669.664 278.367 646.37 244.604 599.492 242.697 604.781 238.547 608.361 229.815 608.063 209.805 607.386 215.26 585.237 215.058 571.587 214.825 553.219 214.691 534.852 214.591 516.477 214.255 512.865 214.055 509.188 213.921 505.439 212.582 463.778 213.586 422.052 213.955 380.359L213.955 380.262C213.787 362.121 213.586 343.987 213.251 325.854 212.984 309.688 216.297 298.65 223.457 291.619 223.625 291.425 223.792 291.256 223.993 291.087 231.019 283.927 242.095 280.613 258.223 280.879 276.358 281.218 294.494 281.419 312.63 281.58L312.73 281.58C354.422 281.218 396.147 280.218 437.805 281.548 441.554 281.685 445.234 281.887 448.848 282.217 480.836 285.096 509.11 295.876 531.831 312.236 578.742 345.963 602.064 403.443 585.969 464.149" fill="#6A1518" transform="matrix(0.64482 -0.764335 -0.764339 -0.644824 810.589 2037.77)"/><path d="M964.032 202.774C965.789 200.814 967.95 199.282 970.45 198.226 972.925 197.178 975.723 196.646 978.755 196.646 981.117 196.646 983.342 196.976 985.366 197.613 987.43 198.275 989.269 199.242 990.833 200.5 992.405 201.774 993.703 203.346 994.671 205.176 995.638 207.007 996.243 209.111 996.453 211.425L996.638 213.368 987.704 213.368 987.567 211.74C987.471 210.587 987.196 209.563 986.753 208.7 986.318 207.845 985.729 207.12 985.011 206.531 984.27 205.934 983.375 205.475 982.335 205.168 981.23 204.838 979.988 204.677 978.642 204.677 976.94 204.677 975.409 204.983 974.078 205.58 972.764 206.168 971.611 207.047 970.668 208.176 969.7 209.337 968.942 210.804 968.418 212.546 967.87 214.344 967.596 216.456 967.596 218.835 967.596 221.197 967.878 223.31 968.426 225.092 968.966 226.825 969.732 228.293 970.7 229.454 971.635 230.575 972.788 231.437 974.118 232.01 975.489 232.598 977.061 232.905 978.787 232.905 980.037 232.905 981.222 232.735 982.294 232.413 983.342 232.09 984.262 231.639 985.028 231.058 985.769 230.502 986.374 229.825 986.818 229.035 987.253 228.269 987.503 227.39 987.567 226.422L987.672 224.761 996.654 224.761 996.453 226.712C996.235 228.873 995.606 230.873 994.582 232.639 993.566 234.396 992.244 235.912 990.647 237.154 989.067 238.379 987.229 239.339 985.189 240 983.173 240.653 981.004 240.984 978.755 240.984 975.739 240.984 972.957 240.452 970.49 239.403 967.999 238.347 965.846 236.823 964.08 234.864 962.322 232.921 960.96 230.55 960.025 227.825 959.105 225.14 958.638 222.117 958.638 218.835 958.638 215.529 959.097 212.498 960.008 209.813 960.936 207.087 962.29 204.717 964.032 202.774" fill="#231F20" transform="matrix(0.64482 -0.764335 -0.764339 -0.644824 810.589 2037.77)"/><path d="M1045.39 212.675C1044.79 214.465 1044.49 216.537 1044.49 218.835 1044.49 221.101 1044.8 223.149 1045.39 224.914 1045.99 226.64 1046.81 228.107 1047.85 229.284 1048.88 230.437 1050.11 231.332 1051.51 231.945 1052.94 232.558 1054.53 232.872 1056.23 232.872 1057.9 232.872 1059.45 232.566 1060.84 231.961 1062.23 231.357 1063.44 230.47 1064.46 229.325 1065.49 228.164 1066.31 226.696 1066.9 224.963 1067.49 223.189 1067.8 221.125 1067.8 218.835 1067.8 216.537 1067.49 214.465 1066.89 212.683 1066.3 210.941 1065.48 209.45 1064.45 208.265 1063.43 207.112 1062.21 206.208 1060.82 205.604 1059.4 204.983 1057.82 204.677 1056.12 204.677 1054.42 204.677 1052.84 204.983 1051.43 205.604 1050.05 206.208 1048.83 207.103 1047.82 208.265 1046.79 209.45 1045.97 210.933 1045.39 212.675ZM1070.99 202.903C1072.79 204.854 1074.22 207.216 1075.23 209.925 1076.23 212.61 1076.73 215.61 1076.73 218.835 1076.73 222.076 1076.22 225.084 1075.21 227.769 1074.19 230.478 1072.75 232.832 1070.93 234.775 1069.1 236.718 1066.9 238.25 1064.39 239.315 1061.88 240.387 1059.11 240.927 1056.15 240.927 1053.21 240.927 1050.44 240.395 1047.93 239.339 1045.4 238.275 1043.19 236.751 1041.35 234.808 1039.52 232.864 1038.07 230.51 1037.06 227.801 1036.05 225.116 1035.53 222.092 1035.53 218.835 1035.53 215.594 1036.04 212.578 1037.04 209.885 1038.05 207.16 1039.48 204.797 1041.3 202.846 1043.13 200.895 1045.34 199.355 1047.86 198.275 1050.38 197.194 1053.17 196.646 1056.15 196.646 1059.13 196.646 1061.92 197.202 1064.44 198.291 1066.96 199.379 1069.16 200.935 1070.99 202.903" fill="#231F20" transform="matrix(0.64482 -0.764335 -0.764339 -0.644824 810.589 2037.77)"/><path d="M1149.41 197.347 1157.94 197.347 1157.94 240.234 1147.02 240.234 1137.59 211.401 1128.26 240.234 1117.35 240.234 1117.35 197.347 1125.84 197.347 1125.84 221.657 1133.97 197.347 1141.21 197.347 1149.41 221.713 1149.41 197.347" fill="#231F20" transform="matrix(0.64482 -0.764335 -0.764339 -0.644824 810.589 2037.77)"/><path d="M1224.33 229.518C1224.68 228.889 1224.86 227.994 1224.86 226.858 1224.86 225.874 1224.72 225.011 1224.46 224.31 1224.23 223.689 1223.87 223.181 1223.36 222.754 1222.82 222.302 1222.08 221.955 1221.16 221.713 1220.14 221.439 1218.86 221.302 1217.36 221.302L1209.13 221.302 1209.13 232.002 1217.18 232.002C1218.37 232.002 1219.5 231.921 1220.55 231.76 1221.46 231.615 1222.26 231.349 1222.93 230.962 1223.52 230.615 1223.98 230.147 1224.33 229.518ZM1233.78 226.97C1233.78 229.559 1233.28 231.752 1232.31 233.493 1231.32 235.235 1229.99 236.638 1228.35 237.654 1226.77 238.629 1224.95 239.315 1222.92 239.694 1221 240.048 1218.97 240.234 1216.89 240.234L1200.38 240.234 1200.38 197.347 1209.13 197.347 1209.13 213.07 1217.24 213.07C1222.46 213.07 1226.54 214.247 1229.37 216.553 1232.3 218.956 1233.78 222.455 1233.78 226.97" fill="#231F20" transform="matrix(0.64482 -0.764335 -0.764339 -0.644824 810.589 2037.77)"/><path d="M1285.42 217.029 1289.53 228.365 1293.86 217.029ZM1301.29 197.347 1311.06 197.347 1293.55 240.234 1285.51 240.234 1269.05 197.347 1278.37 197.347 1282.71 209.297 1296.72 209.297 1301.29 197.347" fill="#231F20" transform="matrix(0.64482 -0.764335 -0.764339 -0.644824 810.589 2037.77)"/><path d="M1382.67 197.347 1382.67 240.234 1374.12 240.234 1374.12 213.28 1356.29 240.234 1348.18 240.234 1348.18 197.347 1356.68 197.347 1356.68 224.269 1374.59 197.347 1382.67 197.347" fill="#231F20" transform="matrix(0.64482 -0.764335 -0.764339 -0.644824 810.589 2037.77)"/><path d="M1436.42 197.347 1445.2 197.347 1445.2 215.255 1462.25 240.234 1451.56 240.234 1440.81 223.657 1430.03 240.234 1419.34 240.234 1436.42 215.255 1436.42 197.347" fill="#231F20" transform="matrix(0.64482 -0.764335 -0.764339 -0.644824 810.589 2037.77)"/><path d="M1405.26 168.144 1460.68 168.144 1460.68 172.127 1405.26 172.127 1405.26 168.144" fill="#231F20" transform="matrix(0.64482 -0.764335 -0.764339 -0.644824 810.589 2037.77)"/><path d="M958.622 168.144 1014.05 168.144 1014.05 172.127 958.622 172.127 958.622 168.144" fill="#231F20" transform="matrix(0.64482 -0.764335 -0.764339 -0.644824 810.589 2037.77)"/><path d="M1039.04 171.207 1031.25 183.173 1027.04 183.173 1037.31 168.16 1037.31 157.097 1040.77 157.097 1040.77 168.16 1051.03 183.173 1046.81 183.173 1039.04 171.207" fill="#231F20" transform="matrix(0.64482 -0.764335 -0.764339 -0.644824 810.589 2037.77)"/><path d="M1085.98 165.709C1085.54 164.402 1084.92 163.29 1084.13 162.387 1083.34 161.484 1082.4 160.79 1081.31 160.315 1080.22 159.839 1079.02 159.605 1077.72 159.605 1076.42 159.605 1075.24 159.839 1074.15 160.315 1073.06 160.79 1072.12 161.484 1071.33 162.387 1070.54 163.29 1069.93 164.402 1069.49 165.709 1069.06 167.023 1068.84 168.506 1068.84 170.167 1068.84 171.812 1069.06 173.28 1069.5 174.578 1069.95 175.876 1070.57 176.972 1071.36 177.875 1072.16 178.77 1073.11 179.456 1074.2 179.932 1075.3 180.407 1076.5 180.649 1077.8 180.649 1079.07 180.649 1080.25 180.415 1081.32 179.948 1082.4 179.472 1083.34 178.795 1084.13 177.9 1084.92 177.013 1085.54 175.908 1085.98 174.61 1086.43 173.304 1086.64 171.82 1086.64 170.167 1086.64 168.506 1086.43 167.023 1085.98 165.709ZM1086.68 179.923C1085.58 181.101 1084.27 182.012 1082.74 182.665 1081.22 183.31 1079.56 183.632 1077.74 183.632 1075.94 183.632 1074.28 183.318 1072.75 182.673 1071.22 182.028 1069.9 181.117 1068.79 179.948 1067.68 178.77 1066.81 177.351 1066.19 175.699 1065.57 174.038 1065.25 172.191 1065.25 170.167 1065.25 168.144 1065.56 166.305 1066.18 164.644 1066.79 162.975 1067.66 161.556 1068.76 160.371 1069.87 159.194 1071.18 158.275 1072.71 157.622 1074.24 156.96 1075.92 156.638 1077.74 156.638 1079.56 156.638 1081.24 156.968 1082.77 157.63 1084.3 158.291 1085.61 159.218 1086.71 160.403 1087.81 161.588 1088.67 163.016 1089.29 164.668 1089.9 166.329 1090.21 168.16 1090.21 170.167 1090.21 172.183 1089.9 174.021 1089.27 175.674 1088.65 177.335 1087.79 178.746 1086.68 179.923" fill="#231F20" transform="matrix(0.64482 -0.764335 -0.764339 -0.644824 810.589 2037.77)"/><path d="M1124.17 168.16C1124.17 166.426 1124.02 165.015 1123.73 163.919 1123.43 162.83 1123 161.967 1122.44 161.347 1121.87 160.726 1121.16 160.298 1120.31 160.073 1119.47 159.847 1118.49 159.734 1117.4 159.734 1116.31 159.734 1115.35 159.847 1114.5 160.065 1113.66 160.282 1112.95 160.702 1112.37 161.314 1111.79 161.935 1111.36 162.79 1111.05 163.894 1110.75 164.991 1110.6 166.41 1110.6 168.16L1110.6 183.173 1107.15 183.173 1107.15 168.103C1107.15 167.232 1107.18 166.337 1107.24 165.434 1107.29 164.523 1107.44 163.653 1107.66 162.806 1107.89 161.951 1108.22 161.161 1108.66 160.411 1109.09 159.669 1109.69 159.016 1110.45 158.452 1111.2 157.896 1112.15 157.452 1113.28 157.13 1114.41 156.799 1115.78 156.638 1117.4 156.638 1119.44 156.638 1121.11 156.896 1122.44 157.412 1123.76 157.936 1124.81 158.686 1125.58 159.669 1126.35 160.653 1126.89 161.855 1127.19 163.274 1127.5 164.693 1127.66 166.305 1127.66 168.103L1127.66 183.173 1124.17 183.173 1124.17 168.16" fill="#231F20" transform="matrix(0.64482 -0.764335 -0.764339 -0.644824 810.589 2037.77)"/><path d="M1159.74 171.603C1158.98 171.441 1158.06 171.361 1156.99 171.361L1149.24 171.361 1149.24 180.278 1157.49 180.278C1159.36 180.278 1160.77 179.923 1161.69 179.214 1162.62 178.496 1163.08 177.392 1163.08 175.884 1163.08 175.053 1162.97 174.344 1162.73 173.771 1162.5 173.191 1162.14 172.723 1161.65 172.369 1161.15 172.014 1160.52 171.764 1159.74 171.603ZM1160.79 168.91 1160.79 168.966C1161.69 169.151 1162.5 169.442 1163.23 169.845 1163.95 170.248 1164.56 170.748 1165.07 171.336 1165.58 171.933 1165.97 172.61 1166.24 173.376 1166.51 174.134 1166.64 174.973 1166.64 175.884 1166.64 176.932 1166.44 177.948 1166.03 178.94 1165.62 179.94 1165.02 180.786 1164.23 181.48 1163.77 181.859 1163.29 182.165 1162.78 182.391 1162.27 182.616 1161.73 182.786 1161.16 182.907 1160.59 183.02 1159.98 183.092 1159.35 183.124 1158.72 183.157 1158.04 183.173 1157.34 183.173L1145.79 183.173 1145.79 157.097 1149.24 157.097 1149.24 168.24 1155.64 168.24C1156.31 168.24 1156.94 168.136 1157.54 167.926 1158.14 167.724 1158.69 167.434 1159.18 167.071 1159.67 166.708 1160.11 166.265 1160.47 165.757 1160.83 165.249 1161.13 164.701 1161.35 164.096L1163.79 157.097 1167.55 157.097 1164.97 164.193C1164.01 166.757 1162.61 168.337 1160.79 168.91" fill="#231F20" transform="matrix(0.64482 -0.764335 -0.764339 -0.644824 810.589 2037.77)"/><path d="M1202.27 168.99C1201.75 169.53 1201.15 169.99 1200.45 170.369 1199.76 170.748 1199.02 171.07 1198.24 171.336 1197.47 171.611 1196.66 171.836 1195.84 172.022 1195.02 172.207 1194.22 172.385 1193.44 172.554 1192.29 172.796 1191.33 173.038 1190.56 173.28 1189.79 173.513 1189.17 173.78 1188.71 174.078 1188.25 174.368 1187.92 174.715 1187.73 175.11 1187.54 175.497 1187.44 175.973 1187.44 176.521 1187.44 177.746 1187.96 178.714 1189.01 179.432 1190.06 180.157 1191.55 180.512 1193.49 180.512 1197.46 180.512 1199.62 178.94 1199.97 175.795L1203.32 175.795C1203.28 177.013 1203.02 178.109 1202.52 179.077 1202.01 180.044 1201.32 180.867 1200.45 181.544 1199.57 182.221 1198.54 182.737 1197.34 183.092 1196.14 183.455 1194.8 183.632 1193.34 183.632 1191.95 183.632 1190.69 183.455 1189.55 183.092 1188.41 182.737 1187.44 182.238 1186.62 181.592 1185.8 180.947 1185.17 180.19 1184.72 179.303 1184.27 178.416 1184.05 177.44 1184.05 176.392 1184.05 175.424 1184.21 174.57 1184.54 173.828 1184.87 173.078 1185.37 172.425 1186.05 171.852 1186.74 171.28 1187.61 170.78 1188.66 170.353 1189.72 169.934 1190.99 169.555 1192.45 169.216 1193.95 168.91 1195.23 168.611 1196.27 168.313 1197.31 168.015 1198.15 167.684 1198.78 167.313 1199.42 166.942 1199.88 166.507 1200.16 166.015 1200.44 165.515 1200.58 164.91 1200.58 164.193 1200.58 163.499 1200.43 162.879 1200.12 162.33 1199.81 161.782 1199.38 161.314 1198.82 160.935 1198.24 160.548 1197.57 160.25 1196.77 160.048 1195.97 159.839 1195.08 159.734 1194.11 159.734 1193.11 159.734 1192.16 159.847 1191.28 160.073 1190.41 160.298 1189.62 160.653 1188.95 161.129 1188.26 161.605 1187.7 162.201 1187.27 162.927 1186.83 163.653 1186.57 164.507 1186.48 165.499L1183.17 165.499C1183.2 164.201 1183.46 163.008 1183.93 161.927 1184.41 160.839 1185.11 159.903 1186.03 159.121 1186.94 158.339 1188.09 157.726 1189.46 157.291 1190.84 156.856 1192.45 156.638 1194.28 156.638 1195.69 156.638 1196.98 156.831 1198.15 157.226 1199.34 157.613 1200.36 158.154 1201.22 158.847 1202.08 159.549 1202.75 160.371 1203.23 161.33 1203.72 162.282 1203.96 163.338 1203.96 164.475 1203.96 165.467 1203.81 166.329 1203.51 167.071 1203.2 167.813 1202.79 168.45 1202.27 168.99" fill="#231F20" transform="matrix(0.64482 -0.764335 -0.764339 -0.644824 810.589 2037.77)"/><path d="M1224.54 183.173 1221.09 183.173 1221.09 157.097 1237.24 157.097 1237.24 160.202 1224.54 160.202 1224.54 183.173" fill="#231F20" transform="matrix(0.64482 -0.764335 -0.764339 -0.644824 810.589 2037.77)"/><path d="M1273.24 165.709C1272.79 164.402 1272.17 163.29 1271.38 162.387 1270.59 161.484 1269.65 160.79 1268.56 160.315 1267.46 159.839 1266.27 159.605 1264.97 159.605 1263.67 159.605 1262.49 159.839 1261.4 160.315 1260.31 160.79 1259.38 161.484 1258.59 162.387 1257.8 163.29 1257.18 164.402 1256.75 165.709 1256.3 167.023 1256.09 168.506 1256.09 170.167 1256.09 171.812 1256.31 173.28 1256.76 174.578 1257.2 175.876 1257.82 176.972 1258.62 177.875 1259.41 178.77 1260.36 179.456 1261.46 179.932 1262.55 180.407 1263.75 180.649 1265.05 180.649 1266.33 180.649 1267.49 180.415 1268.58 179.948 1269.66 179.472 1270.59 178.795 1271.38 177.9 1272.17 177.013 1272.79 175.908 1273.24 174.61 1273.68 173.304 1273.9 171.82 1273.9 170.167 1273.9 168.506 1273.68 167.023 1273.24 165.709ZM1273.94 179.923C1272.83 181.101 1271.52 182.012 1269.99 182.665 1268.47 183.31 1266.8 183.632 1265 183.632 1263.2 183.632 1261.53 183.318 1260 182.673 1258.47 182.028 1257.15 181.117 1256.04 179.948 1254.93 178.77 1254.06 177.351 1253.44 175.699 1252.81 174.038 1252.51 172.191 1252.51 170.167 1252.51 168.144 1252.81 166.305 1253.43 164.644 1254.05 162.975 1254.91 161.556 1256.01 160.371 1257.12 159.194 1258.43 158.275 1259.96 157.622 1261.49 156.96 1263.17 156.638 1265 156.638 1266.82 156.638 1268.49 156.968 1270.03 157.63 1271.55 158.291 1272.86 159.218 1273.96 160.403 1275.07 161.588 1275.92 163.016 1276.54 164.668 1277.15 166.329 1277.46 168.16 1277.46 170.167 1277.46 172.183 1277.15 174.021 1276.53 175.674 1275.9 177.335 1275.04 178.746 1273.94 179.923" fill="#231F20" transform="matrix(0.64482 -0.764335 -0.764339 -0.644824 810.589 2037.77)"/><path d="M1307.29 167.289 1314.18 167.289 1314.18 163.306C1313.25 162.072 1312.1 161.145 1310.72 160.524 1309.33 159.911 1307.69 159.605 1305.78 159.605 1304.44 159.605 1303.22 159.839 1302.12 160.315 1301.02 160.79 1300.08 161.484 1299.29 162.387 1298.5 163.29 1297.88 164.402 1297.45 165.709 1297.01 167.023 1296.8 168.506 1296.8 170.167 1296.8 171.836 1297.01 173.32 1297.45 174.626 1297.88 175.932 1298.5 177.029 1299.28 177.924 1300.06 178.811 1301 179.488 1302.1 179.956 1303.2 180.415 1304.41 180.649 1305.75 180.649 1306.87 180.649 1307.89 180.528 1308.81 180.278 1309.73 180.036 1310.52 179.682 1311.19 179.222 1311.86 178.762 1312.39 178.198 1312.78 177.529 1313.17 176.86 1313.4 176.102 1313.46 175.255L1317.05 175.255C1316.94 176.521 1316.57 177.674 1315.95 178.714 1315.33 179.746 1314.53 180.625 1313.52 181.351 1312.52 182.076 1311.36 182.641 1310.03 183.036 1308.7 183.439 1307.25 183.632 1305.7 183.632 1303.85 183.632 1302.16 183.318 1300.63 182.681 1299.1 182.044 1297.79 181.141 1296.69 179.972 1295.59 178.803 1294.73 177.392 1294.13 175.731 1293.51 174.078 1293.21 172.223 1293.21 170.167 1293.21 168.136 1293.51 166.289 1294.11 164.62 1294.72 162.959 1295.57 161.54 1296.67 160.355 1297.78 159.17 1299.11 158.258 1300.66 157.605 1302.21 156.96 1303.92 156.638 1305.81 156.638 1309.59 156.638 1312.38 157.702 1314.18 159.831L1315.07 157.097 1317.55 157.097 1317.55 170.417 1307.29 170.417 1307.29 167.289" fill="#231F20" transform="matrix(0.64482 -0.764335 -0.764339 -0.644824 810.589 2037.77)"/><path d="M1339.63 167.797 1344.01 179.859 1348.62 167.797ZM1342.18 183.173 1332.18 157.097 1335.82 157.097 1338.69 165.015 1349.62 165.015 1352.65 157.097 1356.56 157.097 1345.92 183.173 1342.18 183.173" fill="#231F20" transform="matrix(0.64482 -0.764335 -0.764339 -0.644824 810.589 2037.77)"/><path d="M1388.95 162.572 1375.33 183.173 1371.76 183.173 1371.76 157.097 1375.04 157.097 1375.04 177.658 1388.72 157.097 1392.27 157.097 1392.27 183.173 1388.95 183.173 1388.95 162.572" fill="#231F20" transform="matrix(0.64482 -0.764335 -0.764339 -0.644824 810.589 2037.77)"/><path d="M1153.62 533.772C1153.56 551.22 1152.49 570.627 1129.25 569.934 1116.03 569.555 1109.99 561.75 1107.38 551.752L1107.38 551.752C1107.44 523.145 1107.23 496.448 1106.47 486.805 1104.24 458.754 1114.5 447.7 1143.46 448.611 1143.5 448.611 1143.54 448.611 1143.57 448.611 1149.21 448.781 1153.7 453.393 1153.7 459.037 1153.73 483.951 1153.74 508.857 1153.62 533.772" fill="#3E9739" transform="matrix(0.64482 -0.764335 -0.764339 -0.644824 810.589 2037.77)"/><path d="M1329.06 343.866C1316.86 333.401 1302.47 331.562 1287.33 331.578 1261.71 331.595 1206.88 331.578 1153.66 331.546 1137.11 331.546 1120.71 331.53 1105.39 331.514 1093.03 331.53 1081.38 331.514 1070.91 331.49 1070.92 342.012 1070.92 353.687 1070.92 365.991 1082.43 366.007 1093.93 366.007 1105.41 366.007 1105.42 382.084 1105.42 398.17 1105.42 414.247 1093.93 414.231 1082.44 414.231 1070.94 414.263 1070.98 466.656 1070.99 520.153 1070.98 545.358 1070.98 560.5 1072.8 574.884 1083.27 587.059 1090.43 595.396 1098.48 601.242 1107.12 604.765 1119.66 609.853 1133.48 610.039 1147.87 605.862 1150.91 604.991 1153.8 603.935 1156.52 602.717 1176.3 593.985 1187.66 576.9 1187.92 553.058 1188.11 535.037 1188.38 517.009 1188.58 498.996 1188.74 482.459 1188.87 465.922 1188.8 449.401 1205.31 449.482 1221.83 449.361 1238.37 449.192 1257.26 448.99 1276.14 448.692 1295.03 448.507 1319.89 448.248 1337.42 435.904 1345.78 414.538 1346.55 412.594 1347.24 410.563 1347.84 408.466 1352.31 393.082 1351.78 378.351 1345.62 365.152 1342.04 357.468 1336.56 350.317 1329.06 343.866ZM1400.58 392.534C1400.39 399 1399.67 405.306 1398.43 411.425 1388.3 461.173 1344.5 497.98 1290.35 498.819 1273.04 499.093 1255.73 499.077 1238.44 499.029 1238.48 515.461 1238.48 531.909 1238.22 548.365 1237.4 601.048 1202.55 643.943 1154.86 655.545 1147.5 657.327 1139.84 658.376 1131.93 658.601 1124.16 658.827 1116.49 658.101 1109.05 656.561 1061.88 646.813 1023.36 603.782 1020.9 552.502 1019.61 525.805 1020.68 499.012 1020.68 472.26L1020.49 472.26C1020.49 463.133 1020.5 438.589 1020.52 410.45L1020.52 410.425C1020.54 397.347 1020.54 383.479 1020.54 370.03 1020.54 356.106 1020.54 342.649 1020.52 330.925 1020.5 314.832 1020.47 302.084 1020.44 296.061 1020.4 291.079 1020.26 286.112 1020.63 281.54 1025.95 280.798 1031.97 280.984 1038.04 281.04 1043.77 281.072 1055.61 281.105 1070.62 281.105 1081.76 281.145 1094.63 281.145 1108.04 281.145 1122.29 281.145 1137.16 281.145 1151.19 281.129 1179.84 281.105 1204.98 281.089 1214.24 281.089L1214.24 281.282C1240.98 281.282 1267.8 280.218 1294.48 281.5 1345.19 283.927 1387.84 321.645 1398.19 368.103 1399.98 376.029 1400.8 384.229 1400.58 392.534" fill="#3E9739" transform="matrix(0.64482 -0.764335 -0.764339 -0.644824 810.589 2037.77)"/><path d="M1275.76 414.231C1246.63 414.368 1217.49 414.312 1188.35 414.296 1178.98 414.28 1169.61 414.28 1160.24 414.28L1160.24 414.28C1156.61 414.28 1153.68 411.337 1153.68 407.708 1153.68 407.555 1153.68 407.394 1153.68 407.233 1153.67 384.479 1172.11 366.039 1194.86 366.055 1198.37 366.055 1201.88 366.055 1205.39 366.063L1205.4 366.063C1229.24 366.08 1253.07 366.112 1276.9 366.2 1293.48 366.249 1311.32 369.692 1311.91 389.833 1312.6 413.094 1293.19 414.159 1275.76 414.231" fill="#3E9739" transform="matrix(0.64482 -0.764335 -0.764339 -0.644824 810.589 2037.77)"/></g></g></g></g></svg>